<svg width="50" height="50" viewBox="0 0 50 50" fill="none" xmlns="http://www.w3.org/2000/svg">
<rect width="50" height="50" rx="25" fill="#EFF4FF"/>
<g clip-path="url(#clip0_137_8036)">
<path d="M35.666 16.9998H30.3327V14.3332C30.3327 12.8532 29.146 11.6665 27.666 11.6665H22.3327C20.8527 11.6665 19.666 12.8532 19.666 14.3332V16.9998H14.3327C12.8527 16.9998 11.6793 18.1865 11.6793 19.6665L11.666 34.3332C11.666 35.8132 12.8527 36.9998 14.3327 36.9998H35.666C37.146 36.9998 38.3327 35.8132 38.3327 34.3332V19.6665C38.3327 18.1865 37.146 16.9998 35.666 16.9998ZM27.666 16.9998H22.3327V14.3332H27.666V16.9998Z" fill="#517FF5"/>
</g>
<defs>
<clipPath id="clip0_137_8036">
<rect width="32" height="32" fill="white" transform="translate(9 9)"/>
</clipPath>
</defs>
</svg>
