<svg width="50" height="50" viewBox="0 0 50 50" fill="none" xmlns="http://www.w3.org/2000/svg">
<rect width="50" height="50" rx="25" fill="#EFF4FF"/>
<path d="M18.2549 22.5332C18.069 22.3474 17.9215 22.1268 17.8208 21.884C17.7202 21.6413 17.6683 21.381 17.6683 21.1182C17.6683 20.8553 17.7202 20.5951 17.8208 20.3523C17.9215 20.1095 18.069 19.8889 18.2549 19.7032L24.6199 13.3432C24.8993 13.0634 25.2554 12.8728 25.6431 12.7954C26.0308 12.7179 26.4327 12.7571 26.7982 12.908C27.1636 13.0589 27.4762 13.3147 27.6963 13.6431C27.9164 13.9715 28.0342 14.3578 28.0349 14.7532C28.0344 14.9512 28.0058 15.1482 27.9499 15.3382C27.9499 15.3882 27.9149 15.4382 27.8949 15.4932C27.7938 15.7403 27.6442 15.9648 27.4549 16.1532L21.0849 22.5332C20.8992 22.7191 20.6786 22.8666 20.4358 22.9673C20.193 23.0679 19.9328 23.1197 19.6699 23.1197C19.4071 23.1197 19.1468 23.0679 18.904 22.9673C18.6612 22.8666 18.4407 22.7191 18.2549 22.5332ZM24.7599 26.6332L12.9999 38.3782C12.8601 38.5172 12.6823 38.6117 12.4889 38.65C12.2954 38.6882 12.095 38.6684 11.9128 38.5931C11.7306 38.5177 11.5747 38.3902 11.4648 38.2265C11.3548 38.0629 11.2957 37.8703 11.2949 37.6732C11.3039 37.4115 11.4152 37.1637 11.6049 36.9832L23.3599 25.2132C23.9015 25.6063 24.3745 26.0861 24.7599 26.6332ZM26.7449 28.1882L26.6749 28.2632C26.3235 27.092 25.6875 26.0261 24.8238 25.1606C23.96 24.2951 22.8954 23.657 21.7249 23.3032L21.7949 23.2382L28.1549 16.8782C28.2049 16.8282 28.2549 16.7732 28.2999 16.7182C28.6366 17.8998 29.2694 18.976 30.1382 19.8449C31.007 20.7137 32.0832 21.3464 33.2649 21.6832L33.1049 21.8282L26.7449 28.1882ZM37.2299 23.9482C37.2295 24.2112 37.1771 24.4716 37.0759 24.7144C36.9746 24.9573 36.8265 25.1777 36.6399 25.3632L30.2799 31.7282C30.0942 31.9141 29.8736 32.0616 29.6308 32.1623C29.388 32.2629 29.1278 32.3147 28.8649 32.3147C28.6021 32.3147 28.3418 32.2629 28.099 32.1623C27.8562 32.0616 27.6357 31.9141 27.4499 31.7282C27.2643 31.5423 27.117 31.3217 27.0166 31.0789C26.9163 30.8361 26.8647 30.5759 26.8649 30.3132C26.8649 30.1008 26.8986 29.8899 26.9649 29.6882C26.976 29.6491 26.9894 29.6107 27.0049 29.5732C27.1023 29.3184 27.2541 29.088 27.4499 28.8982L33.8149 22.5332C34.0095 22.3396 34.243 22.1896 34.4999 22.0932C34.5433 22.0737 34.5885 22.0586 34.6349 22.0482C34.8318 21.9838 35.0378 21.9517 35.2449 21.9532C35.7754 21.9532 36.2841 22.1639 36.6591 22.539C37.0342 22.914 37.2449 23.4227 37.2449 23.9532L37.2299 23.9482ZM37.9999 36.4832H25.9999C25.6021 36.4832 25.2206 36.6412 24.9393 36.9225C24.658 37.2038 24.4999 37.5853 24.4999 37.9832C24.4999 38.381 24.658 38.7625 24.9393 39.0438C25.2206 39.3251 25.6021 39.4832 25.9999 39.4832H37.9999C38.3977 39.4832 38.7793 39.3251 39.0606 39.0438C39.3419 38.7625 39.4999 38.381 39.4999 37.9832C39.4999 37.5853 39.3419 37.2038 39.0606 36.9225C38.7793 36.6412 38.3977 36.4832 37.9999 36.4832Z" fill="#517FF5"/>
</svg>
