<svg width="50" height="50" viewBox="0 0 50 50" fill="none" xmlns="http://www.w3.org/2000/svg">
<rect width="50" height="50" rx="25" fill="#EFF4FF"/>
<path d="M27.2904 24.2139C27.2902 24.8125 27.0522 25.3865 26.6288 25.8097C26.2053 26.2328 25.6311 26.4704 25.0325 26.4702C24.4339 26.47 23.8598 26.232 23.4367 25.8086C23.0135 25.3852 22.7759 24.811 22.7761 24.2124C22.7763 23.6137 23.0143 23.0397 23.4378 22.6166C23.8612 22.1934 24.4354 21.9558 25.034 21.956C25.6326 21.9562 26.2067 22.1942 26.6298 22.6176C27.053 23.0411 27.2906 23.6152 27.2904 24.2139ZM34.4657 18.949H30.6449C29.9547 18.949 29.2928 19.2232 28.8047 19.7112C28.3167 20.1992 28.0425 20.8612 28.0425 21.5513V26.4702C28.0425 26.8692 28.201 27.2518 28.4831 27.5339C28.7652 27.816 29.1478 27.9745 29.5468 27.9745V37H35.5638V27.9745C35.9627 27.9745 36.3453 27.816 36.6274 27.5339C36.9095 27.2518 37.068 26.8692 37.068 26.4702V21.5513C37.068 20.8612 36.7938 20.1992 36.3058 19.7112C35.8178 19.2232 35.1558 18.949 34.4657 18.949Z" fill="#517FF5"/>
<path d="M35.5638 15.9405C35.5728 16.3411 35.5018 16.7395 35.3547 17.1123C35.2077 17.4851 34.9877 17.8248 34.7075 18.1114C34.4274 18.398 34.0929 18.6257 33.7235 18.7812C33.3542 18.9367 32.9575 19.0169 32.5568 19.017C32.156 19.0171 31.7593 18.9371 31.3899 18.7818C31.0205 18.6265 30.6858 18.3989 30.4056 18.1125C30.1253 17.826 29.9051 17.4865 29.7579 17.1137C29.6107 16.741 29.5394 16.3426 29.5483 15.942C29.5656 15.1559 29.8901 14.4079 30.4521 13.858C31.0141 13.3082 31.769 13.0002 32.5553 13C33.3415 12.9998 34.0966 13.3074 34.6589 13.857C35.2212 14.4066 35.546 15.1544 35.5638 15.9405ZM19.4232 20.4532H15.6024C15.2605 20.4533 14.922 20.5208 14.6062 20.6517C14.2905 20.7826 14.0036 20.9744 13.7619 21.2162C13.5202 21.458 13.3286 21.745 13.1979 22.0609C13.0671 22.3767 12.9999 22.7153 13 23.0571C13.0001 23.3989 13.0675 23.7374 13.1984 24.0532C13.3293 24.369 13.5212 24.6559 13.763 24.8976C14.0048 25.1392 14.2918 25.3309 14.6076 25.4616C14.9235 25.5923 15.262 25.6596 15.6039 25.6595C16.2942 25.6593 16.9563 25.3848 17.4443 24.8965C17.9323 24.4082 18.2064 23.746 18.2062 23.0556C18.206 22.3652 17.9316 21.7032 17.4432 21.2151C16.9549 20.7271 16.2927 20.453 15.6024 20.4532C14.9122 20.4532 14.2499 20.7282 13.7619 21.2162C13.2739 21.7042 13 22.3669 13 23.0571L13 26.4702C13 26.8692 13.1585 27.2518 13.4406 27.5339C13.7227 27.816 14.1053 27.9745 14.5043 27.9745L13 32.4872H14.5043V37H20.5213V32.4872H22.0255L20.5213 27.9745C20.9202 27.9745 21.3028 27.816 21.5849 27.5339C21.867 27.2518 22.0255 26.8692 22.0255 26.4702V23.0556C22.0255 22.7138 21.9582 22.3754 21.8274 22.0597C21.6966 21.744 21.5049 21.4571 21.2633 21.2155C21.0216 20.9738 20.7348 20.7821 20.419 20.6513C20.1033 20.5206 19.7649 20.4532 19.4232 20.4532Z" fill="#517FF5"/>
<path d="M20.5213 17.4447C20.5303 17.8454 20.4592 18.2438 20.3122 18.6166C20.1652 18.9894 19.9451 19.329 19.665 19.6156C19.3849 19.9022 19.0504 20.13 18.681 20.2855C18.3117 20.441 17.915 20.5212 17.5143 20.5213C17.1135 20.5214 16.7168 20.4414 16.3474 20.2861C15.978 20.1307 15.6433 19.9032 15.3631 19.6167C15.0828 19.3303 14.8626 18.9907 14.7154 18.618C14.5682 18.2453 14.4969 17.8469 14.5058 17.4462C14.5231 16.6602 14.8476 15.9122 15.4096 15.3623C15.9716 14.8124 16.7265 14.5044 17.5128 14.5043C18.299 14.5041 19.0541 14.8117 19.6164 15.3612C20.1787 15.9108 20.5035 16.6587 20.5213 17.4447ZM23.5298 32.4872V37H26.5383V32.4872C26.9372 32.4872 27.3198 32.3288 27.6019 32.0467C27.884 31.7646 28.0425 31.3819 28.0425 30.983V28.6664C28.0425 28.084 27.8111 27.5254 27.3993 27.1135C26.9874 26.7016 26.4288 26.4702 25.8463 26.4702H24.2217C23.6392 26.4702 23.0806 26.7016 22.6688 27.1135C22.2569 27.5254 22.0255 28.084 22.0255 28.6664V30.983C22.0255 31.3819 22.184 31.7646 22.4661 32.0467C22.7482 32.3288 23.1308 32.4872 23.5298 32.4872Z" fill="#517FF5"/>
</svg>
