<svg width="50" height="50" viewBox="0 0 50 50" fill="none" xmlns="http://www.w3.org/2000/svg">
<rect width="50" height="50" rx="25" fill="#EFF4FF"/>
<path d="M23.866 35.4366H24.0794C24.6836 35.287 25.3152 35.287 25.9194 35.4366H26.1327C26.9527 35.642 27.6805 36.1159 28.2 36.7828C28.7195 37.4497 29.0009 38.2713 28.9994 39.1166H31.666C31.6671 37.6757 31.1859 36.2759 30.2991 35.1402C29.4123 34.0045 28.1709 33.1983 26.7727 32.85H26.5727C25.5441 32.5925 24.468 32.5925 23.4394 32.85H23.226C21.8267 33.1961 20.584 34.0018 19.6968 35.138C18.8096 36.2741 18.3293 37.6751 18.3327 39.1166H20.9994C20.9979 38.2713 21.2793 37.4497 21.7988 36.7828C22.3183 36.1159 23.046 35.642 23.866 35.4366Z" fill="#517FF5"/>
<path d="M33.4394 20.85H33.2394C32.2108 20.5925 31.1346 20.5925 30.106 20.85H29.8927C28.9469 21.0833 28.0665 21.5287 27.3181 22.1524C26.5696 22.776 25.9728 23.5617 25.5727 24.45C25.3818 24.4362 25.1902 24.4362 24.9994 24.45C24.8085 24.4362 24.6169 24.4362 24.426 24.45C24.0259 23.5617 23.4291 22.776 22.6807 22.1524C21.9323 21.5287 21.0519 21.0833 20.106 20.85H19.906C18.8774 20.5925 17.8013 20.5925 16.7727 20.85H16.5594C15.16 21.1961 13.9173 22.0018 13.0302 23.138C12.143 24.2741 11.6626 25.6751 11.666 27.1166H14.3327C14.3312 26.2713 14.6126 25.4497 15.1321 24.7828C15.6516 24.1159 16.3793 23.642 17.1994 23.4366H17.4127C18.0171 23.2886 18.6483 23.2886 19.2527 23.4366H19.466C20.0568 23.5885 20.602 23.8813 21.0548 24.29C21.5076 24.6987 21.8546 25.2111 22.066 25.7833C21.5369 26.354 21.1858 27.0667 21.0557 27.834C20.9256 28.6013 21.0221 29.3898 21.3334 30.1031C21.6448 30.8163 22.1575 31.4233 22.8086 31.8495C23.4598 32.2757 24.2211 32.5028 24.9994 32.5028C25.7776 32.5028 26.539 32.2757 27.1901 31.8495C27.8413 31.4233 28.3539 30.8163 28.6653 30.1031C28.9766 29.3898 29.0732 28.6013 28.9431 27.834C28.8129 27.0667 28.4618 26.354 27.9327 25.7833C28.1558 25.2107 28.5153 24.7013 28.98 24.2993C29.4448 23.8973 30.0007 23.6149 30.5994 23.4766H30.8127C31.4171 23.3286 32.0483 23.3286 32.6527 23.4766H32.866C33.6671 23.6928 34.3749 24.1661 34.8808 24.8237C35.3867 25.4814 35.6626 26.2869 35.666 27.1166H38.3327C38.3338 25.6757 37.8525 24.2759 36.9657 23.1402C36.0789 22.0045 34.8375 21.1983 33.4394 20.85Z" fill="#517FF5"/>
<path d="M18.3327 20.45C20.5418 20.45 22.3327 18.6591 22.3327 16.45C22.3327 14.2408 20.5418 12.45 18.3327 12.45C16.1236 12.45 14.3327 14.2408 14.3327 16.45C14.3327 18.6591 16.1236 20.45 18.3327 20.45Z" fill="#517FF5"/>
<path d="M31.666 20.45C33.8752 20.45 35.666 18.6591 35.666 16.45C35.666 14.2408 33.8752 12.45 31.666 12.45C29.4569 12.45 27.666 14.2408 27.666 16.45C27.666 18.6591 29.4569 20.45 31.666 20.45Z" fill="#517FF5"/>
</svg>
