<svg width="50" height="50" viewBox="0 0 50 50" fill="none" xmlns="http://www.w3.org/2000/svg">
<rect width="50" height="50" rx="25" fill="white"/>
<path d="M25 15C22.879 15.0024 20.8456 15.846 19.3458 17.3458C17.846 18.8456 17.0024 20.879 17 23C17 26.255 19.363 28.958 21.866 31.819C22.658 32.725 23.478 33.662 24.208 34.61C24.3014 34.7312 24.4214 34.8293 24.5587 34.8968C24.696 34.9644 24.847 34.9995 25 34.9995C25.153 34.9995 25.304 34.9644 25.4413 34.8968C25.5786 34.8293 25.6986 34.7312 25.792 34.61C26.522 33.662 27.342 32.725 28.134 31.819C30.637 28.958 33 26.255 33 23C32.9976 20.879 32.154 18.8456 30.6542 17.3458C29.1544 15.846 27.121 15.0024 25 15ZM25 26C24.4067 26 23.8266 25.8241 23.3333 25.4944C22.8399 25.1648 22.4554 24.6962 22.2284 24.1481C22.0013 23.5999 21.9419 22.9967 22.0576 22.4147C22.1734 21.8328 22.4591 21.2982 22.8787 20.8787C23.2982 20.4591 23.8328 20.1734 24.4147 20.0576C24.9967 19.9419 25.5999 20.0013 26.1481 20.2284C26.6962 20.4554 27.1648 20.8399 27.4944 21.3333C27.8241 21.8266 28 22.4067 28 23C28 23.7956 27.6839 24.5587 27.1213 25.1213C26.5587 25.6839 25.7956 26 25 26Z" fill="#01174E"/>
</svg>
