<svg width="50" height="50" viewBox="0 0 50 50" fill="none" xmlns="http://www.w3.org/2000/svg">
<rect width="50" height="50" rx="25" fill="#EFF4FF"/>
<path fill-rule="evenodd" clip-rule="evenodd" d="M14.2112 20.7001C16.1678 16.1828 21.0482 13.4453 26.0906 14.381C31.5459 15.3934 35.2807 20.3506 34.8949 25.759C34.8473 26.4183 35.3448 26.9928 36.0057 27.0406C36.6665 27.0885 37.2412 26.5895 37.2874 25.9299C37.7606 19.3187 33.1962 13.2587 26.5285 12.0213C20.3652 10.8776 14.3998 14.2253 12.0085 19.7452C11.7445 20.3537 12.0253 21.0603 12.6324 21.324C13.2397 21.5863 13.9475 21.3072 14.2112 20.7001Z" fill="#517FF5"/>
<path fill-rule="evenodd" clip-rule="evenodd" d="M14.2427 19.816L13.2991 17.1496C13.0778 16.5269 12.3919 16.1995 11.7685 16.4191C11.144 16.6381 10.8109 17.3361 11.0334 17.9594L11.977 20.6258C12.1983 21.2485 12.8842 21.5759 13.5076 21.3563C14.1321 21.1373 14.4652 20.4393 14.2427 19.816Z" fill="#517FF5"/>
<path fill-rule="evenodd" clip-rule="evenodd" d="M13.5076 21.3563L16.174 20.4127C16.7985 20.1937 17.1316 19.4958 16.9091 18.8725C16.6877 18.2497 16.0019 17.9224 15.3785 18.142L12.7121 19.0855C12.0875 19.3045 11.7544 20.0025 11.977 20.6258C12.1983 21.2485 12.8842 21.5759 13.5076 21.3563Z" fill="#517FF5"/>
<path fill-rule="evenodd" clip-rule="evenodd" d="M33.9761 30.0701L34.7082 32.8022C34.8801 33.4403 35.5383 33.8203 36.1769 33.6502C36.8167 33.4807 37.2034 32.8109 37.0303 32.1721L36.2982 29.4401C36.1262 28.8019 35.4681 28.4219 34.8295 28.5921C34.1897 28.7616 33.803 29.4313 33.9761 30.0701Z" fill="#517FF5"/>
<path fill-rule="evenodd" clip-rule="evenodd" d="M34.8295 28.5921L32.0974 29.3241C31.4576 29.4936 31.0709 30.1634 31.2441 30.8022C31.416 31.4403 32.0742 31.8203 32.7128 31.6502L35.4449 30.9181C36.0846 30.7486 36.4713 30.0789 36.2982 29.4401C36.1262 28.8019 35.4681 28.4219 34.8295 28.5921Z" fill="#517FF5"/>
<path fill-rule="evenodd" clip-rule="evenodd" d="M34.0366 29.2825C32.0857 33.8101 27.1993 36.5556 22.1495 35.6185C16.6853 34.6044 12.9471 29.6329 13.3484 24.2152C13.396 23.5558 12.9002 22.9802 12.2396 22.9308C11.579 22.8815 11.0031 23.3787 10.9538 24.0393C10.4648 30.6613 15.0336 36.7389 21.7116 37.9782C27.8837 39.1236 33.8555 35.7663 36.2401 30.233C36.5026 29.6242 36.2218 28.9176 35.6145 28.6554C35.0054 28.3944 34.2988 28.6751 34.0366 29.2825Z" fill="#517FF5"/>
<path fill-rule="evenodd" clip-rule="evenodd" d="M13.2031 25.9809H35.0379C35.5798 25.9809 36.0195 25.5405 36.0195 24.9993C36.0195 24.4581 35.5798 24.0177 35.0379 24.0177H13.2031C12.6612 24.0177 12.2215 24.4581 12.2215 24.9993C12.2215 25.5405 12.6612 25.9809 13.2031 25.9809Z" fill="#517FF5"/>
<path fill-rule="evenodd" clip-rule="evenodd" d="M24.8403 35.9471C21.958 33.7715 20.0873 29.7202 20.0873 25.0001C20.0873 20.2801 21.9693 16.2513 24.8507 14.0757C25.3843 13.673 25.4909 12.9127 25.0873 12.3782C24.6838 11.8449 23.9238 11.7383 23.3892 12.141C19.9864 14.7106 17.6623 19.4256 17.6623 25.0001C17.6623 30.5746 19.976 35.3122 23.3789 37.8818C23.9135 38.2845 24.6744 38.1791 25.077 37.6446C25.4805 37.1114 25.374 36.3498 24.8403 35.9471Z" fill="#517FF5"/>
<path fill-rule="evenodd" clip-rule="evenodd" d="M23.3897 14.0619C26.1957 16.2676 28.0333 20.3528 28.0333 25.0001C28.0333 29.6612 26.1844 33.7577 23.3633 35.9584C22.8362 36.3699 22.742 37.1327 23.154 37.6597C23.5651 38.1879 24.3269 38.282 24.8549 37.8705C28.1785 35.2771 30.4584 30.493 30.4584 25.0001C30.4584 19.526 28.1936 14.7545 24.8879 12.1561C24.3618 11.742 23.599 11.8336 23.186 12.3593C22.7721 12.885 22.8636 13.6479 23.3897 14.0619Z" fill="#517FF5"/>
</svg>
