<svg width="50" height="50" viewBox="0 0 50 50" fill="none" xmlns="http://www.w3.org/2000/svg">
<rect width="50" height="50" rx="25" fill="#EFF4FF"/>
<path d="M33.6389 24.1428L33.8889 28.5317C33.9259 29.1706 33.5463 29.7632 32.75 30.3095C31.9537 30.8558 30.8657 31.2887 29.4861 31.6081C28.1065 31.9275 26.6111 32.0873 25 32.0873C23.3889 32.0873 21.8935 31.9275 20.5139 31.6081C19.1343 31.2886 18.0463 30.8558 17.25 30.3095C16.4537 29.7632 16.0741 29.1706 16.1111 28.5317L16.3611 24.1428L24.3333 26.6567C24.537 26.7215 24.7593 26.7539 25 26.7539C25.2407 26.7539 25.463 26.7215 25.6667 26.6567L33.6389 24.1428ZM41 19.6428C41 19.8558 40.8982 19.9993 40.6944 20.0734L25.1389 24.9623C25.1019 24.9715 25.0556 24.9762 25 24.9762C24.9444 24.9762 24.8981 24.9715 24.8611 24.9623L15.8056 22.1012C15.4074 22.416 15.0787 22.9322 14.8194 23.6498C14.5602 24.3674 14.4028 25.1938 14.3472 26.1289C14.9305 26.4623 15.2222 26.9669 15.2222 27.6428C15.2222 28.2817 14.9537 28.7771 14.4167 29.1289L15.2222 35.1428C15.2407 35.2724 15.2037 35.3882 15.1111 35.49C15.0278 35.5919 14.9166 35.6428 14.7778 35.6428H12.1111C11.9722 35.6428 11.8611 35.5919 11.7778 35.49C11.6852 35.3882 11.6481 35.2724 11.6667 35.1428L12.4722 29.1289C11.9352 28.7771 11.6667 28.2817 11.6667 27.6428C11.6667 26.9669 11.9676 26.453 12.5694 26.1011C12.6713 24.1845 13.125 22.6567 13.9306 21.5178L9.30555 20.0734C9.10185 19.9993 9 19.8558 9 19.6428C9 19.4298 9.10185 19.2863 9.30555 19.2123L24.8611 14.3233C24.8981 14.3141 24.9444 14.3094 25 14.3094C25.0556 14.3094 25.1019 14.3141 25.1389 14.3233L40.6944 19.2122C40.8981 19.2863 41 19.4298 41 19.6428Z" fill="#517FF5"/>
</svg>
