<svg width="158" height="36" viewBox="0 0 158 36" fill="none" xmlns="http://www.w3.org/2000/svg">
<path d="M14.7692 16.7692C14.7692 8.61241 8.15682 2 0 2V13.7135C0 21.8703 6.61241 28.4828 14.7692 28.4828V16.7692Z" fill="#235CEB"/>
<path d="M15.8727 22.2865C15.8727 14.1297 22.4851 7.51724 30.6419 7.51724V19.2308C30.6419 27.3876 24.0295 34 15.8727 34V22.2865Z" fill="#235CEB"/>
<path d="M57.2346 10.16V12.824H51.9306V26H48.6186V12.824H43.2906V10.16H57.2346ZM66.925 10.16C70.477 10.16 72.685 12.008 72.685 14.936C72.685 17.264 71.461 18.8 69.349 19.424L73.621 26H69.901L66.181 19.928H63.205V26H59.941V10.16H66.925ZM66.541 17.408C68.389 17.408 69.301 16.688 69.301 15.104C69.301 13.52 68.389 12.8 66.541 12.8H63.205V17.408H66.541ZM79.5655 23.336H87.9175V26H76.2535V10.16H79.5655V23.336ZM97.3155 10.16C100.94 10.16 103.148 12.056 103.148 15.272C103.148 18.488 100.94 20.384 97.3155 20.384H93.9795V26H90.6675V10.16H97.3155ZM96.8115 17.768C98.8035 17.768 99.7875 16.928 99.7875 15.272C99.7875 13.616 98.8035 12.776 96.8115 12.776H93.9795V17.768H96.8115ZM109.495 23.336H117.847V26H106.183V10.16H109.495V23.336ZM134.349 26H130.917L129.597 22.136H123.525L122.205 26H118.821L124.605 10.16H128.565L134.349 26ZM124.269 19.688H128.853L126.549 12.776L124.269 19.688ZM138.503 26L133.895 10.16H137.423L140.543 23.24L143.711 10.16H146.879L150.095 23.24L153.191 10.16H156.575L151.967 26H148.247L146.039 17.36L145.295 13.616H145.247L144.503 17.36L142.319 26H138.503Z" fill="#14161C"/>
</svg>
