<svg width="196" height="40" viewBox="0 0 196 40" fill="none" xmlns="http://www.w3.org/2000/svg">
<path d="M18.4615 18.4615C18.4615 8.26551 10.196 0 0 0V14.6419C0 24.8379 8.26551 33.1034 18.4615 33.1034V18.4615Z" fill="#235CEB"/>
<path d="M19.8408 25.3581C19.8408 15.1621 28.1064 6.89655 38.3024 6.89655V21.5385C38.3024 31.7345 30.0369 40 19.8408 40V25.3581Z" fill="#235CEB"/>
<path d="M71.5424 10.2V13.53H64.9124V30H60.7724V13.53H54.1124V10.2H71.5424Z" fill="white"/>
<path d="M83.6553 10.2C88.0954 10.2 90.8553 12.51 90.8553 16.17C90.8553 19.08 89.3254 21 86.6853 21.78L92.0254 30H87.3754L82.7254 22.41H79.0053V30H74.9254V10.2H83.6553ZM83.1754 19.26C85.4854 19.26 86.6254 18.36 86.6254 16.38C86.6254 14.4 85.4854 13.5 83.1754 13.5H79.0053V19.26H83.1754Z" fill="white"/>
<path d="M99.456 26.67H109.896V30H95.316V10.2H99.456V26.67Z" fill="white"/>
<path d="M121.644 10.2C126.174 10.2 128.934 12.57 128.934 16.59C128.934 20.61 126.174 22.98 121.644 22.98H117.474V30H113.334V10.2H121.644ZM121.014 19.71C123.504 19.71 124.734 18.66 124.734 16.59C124.734 14.52 123.504 13.47 121.014 13.47H117.474V19.71H121.014Z" fill="white"/>
<path d="M136.868 26.67H147.308V30H132.728V10.2H136.868V26.67Z" fill="white"/>
<path d="M167.936 30H163.646L161.996 25.17H154.406L152.756 30H148.526L155.756 10.2H160.706L167.936 30ZM155.336 22.11H161.066L158.186 13.47L155.336 22.11Z" fill="white"/>
<path d="M173.128 30L167.368 10.2H171.778L175.678 26.55L179.638 10.2H183.598L187.618 26.55L191.488 10.2H195.718L189.958 30H185.308L182.548 19.2L181.618 14.52H181.558L180.628 19.2L177.898 30H173.128Z" fill="white"/>
</svg>
