<svg width="50" height="50" viewBox="0 0 50 50" fill="none" xmlns="http://www.w3.org/2000/svg">
<rect width="50" height="50" rx="25" fill="white"/>
<path d="M22.9118 19.0479C22.6253 15.7524 19.1873 14.1354 19.0418 14.0694C18.9058 14.0055 18.7534 13.985 18.6053 14.0109C14.6363 14.6694 14.0393 16.9794 14.0153 17.0754C13.9827 17.2092 13.9879 17.3494 14.0303 17.4804C18.7643 32.1684 28.6028 34.8909 31.8368 35.7864C32.0858 35.8554 32.2913 35.9109 32.4473 35.9619C32.6253 36.0201 32.8187 36.0088 32.9888 35.9304C33.0878 35.8854 35.4248 34.7844 35.9963 31.1934C36.0217 31.0366 35.9964 30.8759 35.9243 30.7344C35.8733 30.6354 34.6508 28.3089 31.2608 27.4869C31.1458 27.4575 31.0254 27.4565 30.9099 27.4839C30.7944 27.5113 30.6873 27.5664 30.5978 27.6444C29.5283 28.5579 28.0508 29.5314 27.4133 29.6319C23.1398 27.5424 20.7533 23.5329 20.6633 22.7724C20.6108 22.3449 21.5903 20.8434 22.7168 19.6224C22.7876 19.5456 22.8415 19.4547 22.8751 19.3558C22.9087 19.2568 22.9212 19.152 22.9118 19.0479Z" fill="#01174E"/>
</svg>
