<svg width="51" height="50" viewBox="0 0 51 50" fill="none" xmlns="http://www.w3.org/2000/svg">
<rect x="0.5" width="50" height="50" rx="25" fill="#EFF4FF"/>
<path d="M24.5001 11V11.004L21.0961 12.092C20.4171 13.786 18.8491 14.979 17.0001 14.979C16.1391 14.977 15.3381 14.629 14.6171 14.166L12.5001 14.843V28.459C12.4841 32.262 15.4231 34.877 18.4801 36.577C21.4471 38.227 24.3271 38.917 24.5001 38.957C24.6731 38.917 27.5451 38.227 30.5081 36.577C33.5611 34.877 36.5001 32.261 36.5001 28.457V14.843L34.3871 14.167C33.6651 14.631 32.8641 14.975 32.0021 14.977H32.0001C30.1541 14.974 28.5881 13.784 27.9101 12.093L24.5001 11ZM24.5021 19.702L26.2641 23.106L30.0471 23.733L27.3541 26.461L27.9261 30.251L24.5001 28.533L21.0721 30.249L21.6461 26.459L18.9561 23.73L22.7381 23.105L24.5021 19.702Z" fill="#517FF5"/>
</svg>
