<svg width="50" height="50" viewBox="0 0 50 50" fill="none" xmlns="http://www.w3.org/2000/svg">
<rect width="50" height="50" rx="25" fill="#EFF4FF"/>
<g clip-path="url(#clip0_137_8055)">
<path fill-rule="evenodd" clip-rule="evenodd" d="M12.4433 26.0504L12.4646 21.4726C12.4683 20.5143 12.3058 18.9406 11.2317 18.5621C11.0997 18.5159 10.9612 18.4913 10.8214 18.4895C10.1043 18.4784 9.31035 19.067 9.2891 19.8179L9.00141 29.0383C8.97516 29.968 9.31635 30.7896 9.97303 31.4462L14.5704 36.0435V40.3025C14.5704 40.6467 14.8512 40.9275 15.1954 40.9275H19.5808C19.9247 40.9275 20.2053 40.6472 20.2058 40.3033L20.2155 32.9954C20.217 31.9611 20.0873 30.9192 19.2752 30.1872C19.0067 29.9453 18.7283 29.7127 18.4519 29.4798C17.5816 28.7463 16.7172 28.0065 15.9429 27.173C15.7682 26.9848 15.6048 26.7486 15.4003 26.5976C14.8568 26.1961 14.104 26.1995 13.6103 26.6925C13.1499 27.1523 13.4464 27.7059 13.6531 27.9125L17.5199 31.7793C17.7824 32.0418 17.4848 33.2046 16.7897 32.5095L13.2437 28.9635C12.2034 27.9232 12.4372 27.6018 12.4433 26.0504ZM17.974 17.558L17.0578 18.2236C16.3817 18.7135 15.4364 18.5626 14.9465 17.8865C14.4565 17.2103 14.6075 16.265 15.2836 15.7751L24.1129 9.36021C24.6651 8.96009 25.3968 8.98746 25.9133 9.37927L34.7165 15.7751C35.3926 16.265 35.5435 17.2103 35.0536 17.8865C34.5637 18.5626 33.6183 18.7135 32.9422 18.2236L32.0261 17.558V25.8756C32.0261 27.0646 31.0532 28.0375 29.8642 28.0375H27.0956V20.8203C27.0956 20.261 26.638 19.8034 26.0787 19.8034H23.9215C23.3622 19.8034 22.9045 20.261 22.9045 20.8203V28.0375H20.1358C18.9468 28.0375 17.974 27.0646 17.974 25.8756V17.558ZM37.5568 26.0505C37.5629 27.6018 37.7967 27.9233 36.7564 28.9636L33.2103 32.5096C32.5153 33.2048 32.2177 32.0419 32.4802 31.7794L36.347 27.9126C36.5536 27.706 36.8502 27.1523 36.3898 26.6926C35.8961 26.1996 35.1432 26.1961 34.5997 26.5976C34.3953 26.7487 34.2319 26.9848 34.0572 27.173C33.2829 28.0066 32.4184 28.7464 31.5481 29.4798C31.2717 29.7128 30.9933 29.9453 30.7248 30.1873C29.9127 30.9193 29.783 31.9611 29.7845 32.9955L29.7942 40.3034C29.7947 40.6473 30.0753 40.9275 30.4192 40.9275H34.8047C35.1489 40.9275 35.4297 40.6468 35.4297 40.3025V36.0436L40.027 31.4463C40.6837 30.7896 41.0249 29.968 40.9987 29.0384L40.711 19.818C40.6897 19.0671 39.8958 18.4785 39.1787 18.4895C39.0389 18.4914 38.9004 18.5159 38.7685 18.5622C37.6943 18.9408 37.5318 20.5143 37.5355 21.4727L37.5568 26.0505Z" fill="#517FF5"/>
</g>
<defs>
<clipPath id="clip0_137_8055">
<rect width="32" height="32" fill="white" transform="translate(9 9)"/>
</clipPath>
</defs>
</svg>
